<mxfile host="app.diagrams.net" modified="2024-07-13T23:10:17.835Z" agent="Mozilla/5.0 (Windows NT 10.0; Win64; x64) AppleWebKit/537.36 (KHTML, like Gecko) Chrome/126.0.0.0 Safari/537.36" etag="kyMgD8D648LULJmf1pt8" version="24.6.5" type="device" pages="2">
  <diagram name="System Architecture Diagram" id="ymnYe4EnBwTW25vVaZ7_">
    <mxGraphModel dx="2206" dy="1237" grid="0" gridSize="10" guides="1" tooltips="1" connect="1" arrows="1" fold="1" page="0" pageScale="1" pageWidth="850" pageHeight="1100" math="0" shadow="0">
      <root>
        <mxCell id="0" />
        <mxCell id="1" parent="0" />
        <mxCell id="IEH_S26rYbEHb3KUr3_q-1" value="Cold Start Handling" style="whiteSpace=wrap;strokeWidth=2;verticalAlign=top;" vertex="1" parent="1">
          <mxGeometry x="1199" y="445" width="533" height="100" as="geometry" />
        </mxCell>
        <mxCell id="IEH_S26rYbEHb3KUr3_q-2" value="New Users Handling&#xa;Recommend with little history" style="whiteSpace=wrap;strokeWidth=2;" vertex="1" parent="1">
          <mxGeometry x="1464" y="470" width="233" height="50" as="geometry" />
        </mxCell>
        <mxCell id="IEH_S26rYbEHb3KUr3_q-3" value="New Products Handling&#xa;Incorporate new items" style="whiteSpace=wrap;strokeWidth=2;" vertex="1" parent="1">
          <mxGeometry x="1234" y="470" width="179" height="50" as="geometry" />
        </mxCell>
        <mxCell id="IEH_S26rYbEHb3KUr3_q-4" value="Data Analysis" style="whiteSpace=wrap;strokeWidth=2;verticalAlign=top;" vertex="1" parent="1">
          <mxGeometry x="4354" y="913" width="1094" height="100" as="geometry" />
        </mxCell>
        <mxCell id="IEH_S26rYbEHb3KUr3_q-5" value="Descriptive Statistics&#xa;Summarize data characteristics" style="whiteSpace=wrap;strokeWidth=2;" vertex="1" parent="1">
          <mxGeometry x="5173" y="938" width="241" height="50" as="geometry" />
        </mxCell>
        <mxCell id="IEH_S26rYbEHb3KUr3_q-6" value="Temporal Analysis&#xa;Analyze trends over time" style="whiteSpace=wrap;strokeWidth=2;" vertex="1" parent="1">
          <mxGeometry x="4927" y="938" width="196" height="50" as="geometry" />
        </mxCell>
        <mxCell id="IEH_S26rYbEHb3KUr3_q-7" value="User Behavior Analysis&#xa;Study user interactions" style="whiteSpace=wrap;strokeWidth=2;" vertex="1" parent="1">
          <mxGeometry x="4696" y="938" width="181" height="50" as="geometry" />
        </mxCell>
        <mxCell id="IEH_S26rYbEHb3KUr3_q-8" value="Product Analysis&#xa;Examine product relationships" style="whiteSpace=wrap;strokeWidth=2;" vertex="1" parent="1">
          <mxGeometry x="4414" y="938" width="233" height="50" as="geometry" />
        </mxCell>
        <mxCell id="IEH_S26rYbEHb3KUr3_q-9" value="Feedback Loop" style="whiteSpace=wrap;strokeWidth=2;verticalAlign=top;" vertex="1" parent="1">
          <mxGeometry x="600" y="170" width="499" height="375" as="geometry" />
        </mxCell>
        <mxCell id="IEH_S26rYbEHb3KUr3_q-10" value="Explicit Feedback&#xa;Direct user feedback" style="whiteSpace=wrap;strokeWidth=2;" vertex="1" parent="1">
          <mxGeometry x="899" y="195" width="165" height="50" as="geometry" />
        </mxCell>
        <mxCell id="IEH_S26rYbEHb3KUr3_q-11" value="Implicit Feedback&#xa;Inferred from user behavior" style="whiteSpace=wrap;strokeWidth=2;" vertex="1" parent="1">
          <mxGeometry x="635" y="195" width="214" height="50" as="geometry" />
        </mxCell>
        <mxCell id="IEH_S26rYbEHb3KUr3_q-12" value="A/B Testing&#xa;Compare system versions" style="whiteSpace=wrap;strokeWidth=2;" vertex="1" parent="1">
          <mxGeometry x="752" y="470" width="196" height="50" as="geometry" />
        </mxCell>
        <mxCell id="IEH_S26rYbEHb3KUr3_q-13" value="Deployment" style="whiteSpace=wrap;strokeWidth=2;verticalAlign=top;" vertex="1" parent="1">
          <mxGeometry x="1752" y="445" width="308" height="568" as="geometry" />
        </mxCell>
        <mxCell id="IEH_S26rYbEHb3KUr3_q-14" value="Containerization&#xa;Package app and dependencies" style="whiteSpace=wrap;strokeWidth=2;" vertex="1" parent="1">
          <mxGeometry x="1787" y="470" width="238" height="50" as="geometry" />
        </mxCell>
        <mxCell id="IEH_S26rYbEHb3KUr3_q-15" value="Cloud Deployment&#xa;Deploy to cloud platform" style="whiteSpace=wrap;strokeWidth=2;" vertex="1" parent="1">
          <mxGeometry x="1809" y="595" width="194" height="50" as="geometry" />
        </mxCell>
        <mxCell id="IEH_S26rYbEHb3KUr3_q-16" value="API Endpoints&#xa;Define interaction interfaces" style="whiteSpace=wrap;strokeWidth=2;" vertex="1" parent="1">
          <mxGeometry x="1794" y="767" width="223" height="50" as="geometry" />
        </mxCell>
        <mxCell id="IEH_S26rYbEHb3KUr3_q-17" value="Caching Mechanism&#xa;Store frequent data for speed" style="whiteSpace=wrap;strokeWidth=2;" vertex="1" parent="1">
          <mxGeometry x="1791" y="938" width="229" height="50" as="geometry" />
        </mxCell>
        <mxCell id="IEH_S26rYbEHb3KUr3_q-18" value="Model Evaluation" style="whiteSpace=wrap;strokeWidth=2;verticalAlign=top;" vertex="1" parent="1">
          <mxGeometry x="2080" y="445" width="861" height="100" as="geometry" />
        </mxCell>
        <mxCell id="IEH_S26rYbEHb3KUr3_q-19" value="Cross-Validation&#xa;Assess model generalization" style="whiteSpace=wrap;strokeWidth=2;" vertex="1" parent="1">
          <mxGeometry x="2689" y="470" width="217" height="50" as="geometry" />
        </mxCell>
        <mxCell id="IEH_S26rYbEHb3KUr3_q-20" value="Hyperparameter Tuning&#xa;Optimize model parameters" style="whiteSpace=wrap;strokeWidth=2;" vertex="1" parent="1">
          <mxGeometry x="2423" y="470" width="216" height="50" as="geometry" />
        </mxCell>
        <mxCell id="IEH_S26rYbEHb3KUr3_q-21" value="Performance Metrics&#xa;Evaluate recommendation quality" style="whiteSpace=wrap;strokeWidth=2;" vertex="1" parent="1">
          <mxGeometry x="2115" y="470" width="258" height="50" as="geometry" />
        </mxCell>
        <mxCell id="IEH_S26rYbEHb3KUr3_q-22" value="Data Processing" style="whiteSpace=wrap;strokeWidth=2;verticalAlign=top;" vertex="1" parent="1">
          <mxGeometry x="3915" y="913" width="419" height="425" as="geometry" />
        </mxCell>
        <mxCell id="IEH_S26rYbEHb3KUr3_q-23" value="Data Cleaning&#xa;Remove inaccurate records" style="whiteSpace=wrap;strokeWidth=2;" vertex="1" parent="1">
          <mxGeometry x="4089" y="938" width="210" height="50" as="geometry" />
        </mxCell>
        <mxCell id="IEH_S26rYbEHb3KUr3_q-24" value="Feature Engineering&#xa;Create new features" style="whiteSpace=wrap;strokeWidth=2;" vertex="1" parent="1">
          <mxGeometry x="4113" y="1063" width="162" height="50" as="geometry" />
        </mxCell>
        <mxCell id="IEH_S26rYbEHb3KUr3_q-25" value="Data Normalization&#xa;Scale numeric data" style="whiteSpace=wrap;strokeWidth=2;" vertex="1" parent="1">
          <mxGeometry x="4118" y="1163" width="153" height="50" as="geometry" />
        </mxCell>
        <mxCell id="IEH_S26rYbEHb3KUr3_q-26" value="Categorical Encoding&#xa;Convert categories for ML" style="whiteSpace=wrap;strokeWidth=2;" vertex="1" parent="1">
          <mxGeometry x="4094" y="1263" width="201" height="50" as="geometry" />
        </mxCell>
        <mxCell id="IEH_S26rYbEHb3KUr3_q-27" value="Monitoring &amp; Security" style="whiteSpace=wrap;strokeWidth=2;verticalAlign=top;" vertex="1" parent="1">
          <mxGeometry x="3088" y="20" width="2683" height="100" as="geometry" />
        </mxCell>
        <mxCell id="IEH_S26rYbEHb3KUr3_q-28" value="Monitoring &amp;amp; Analytics&#xa;Track system performance" style="whiteSpace=wrap;strokeWidth=2;" vertex="1" parent="1">
          <mxGeometry x="3376" y="45" width="213" height="50" as="geometry" />
        </mxCell>
        <mxCell id="IEH_S26rYbEHb3KUr3_q-29" value="Security &amp;amp; Compliance&#xa;Ensure data protection" style="whiteSpace=wrap;strokeWidth=2;" vertex="1" parent="1">
          <mxGeometry x="5503" y="45" width="214" height="50" as="geometry" />
        </mxCell>
        <mxCell id="IEH_S26rYbEHb3KUr3_q-30" value="Data Layer" style="whiteSpace=wrap;strokeWidth=2;verticalAlign=top;" vertex="1" parent="1">
          <mxGeometry x="2773" y="720" width="2926" height="143" as="geometry" />
        </mxCell>
        <mxCell id="IEH_S26rYbEHb3KUr3_q-31" value="Store 1 Database CSV&#xa;Transaction data" style="shape=cylinder3;boundedLbl=1;backgroundOutline=1;size=10;strokeWidth=2;whiteSpace=wrap;" vertex="1" parent="1">
          <mxGeometry x="4833" y="745" width="168" height="93" as="geometry" />
        </mxCell>
        <mxCell id="IEH_S26rYbEHb3KUr3_q-32" value="Store 2 Database CSV&#xa;Transaction data" style="shape=cylinder3;boundedLbl=1;backgroundOutline=1;size=10;strokeWidth=2;whiteSpace=wrap;" vertex="1" parent="1">
          <mxGeometry x="4528" y="745" width="168" height="93" as="geometry" />
        </mxCell>
        <mxCell id="IEH_S26rYbEHb3KUr3_q-33" value="Store N Database CSV&#xa;Transaction data" style="shape=cylinder3;boundedLbl=1;backgroundOutline=1;size=10;strokeWidth=2;whiteSpace=wrap;" vertex="1" parent="1">
          <mxGeometry x="4016" y="745" width="170" height="93" as="geometry" />
        </mxCell>
        <mxCell id="IEH_S26rYbEHb3KUr3_q-34" value="Model Storage&#xa;Trained ML models" style="shape=cylinder3;boundedLbl=1;backgroundOutline=1;size=10;strokeWidth=2;whiteSpace=wrap;" vertex="1" parent="1">
          <mxGeometry x="3557" y="746" width="149" height="91" as="geometry" />
        </mxCell>
        <mxCell id="IEH_S26rYbEHb3KUr3_q-35" value="Recommendation Engine" style="whiteSpace=wrap;strokeWidth=2;verticalAlign=top;" vertex="1" parent="1">
          <mxGeometry x="3114" y="445" width="1052" height="225" as="geometry" />
        </mxCell>
        <mxCell id="IEH_S26rYbEHb3KUr3_q-36" value="Collaborative Filtering&#xa;Recommend based on user-item interactions" style="whiteSpace=wrap;strokeWidth=2;" vertex="1" parent="1">
          <mxGeometry x="3796" y="470" width="335" height="50" as="geometry" />
        </mxCell>
        <mxCell id="IEH_S26rYbEHb3KUr3_q-37" value="Content-Based Filtering&#xa;Recommend similar items to user&#39;s likes" style="whiteSpace=wrap;strokeWidth=2;" vertex="1" parent="1">
          <mxGeometry x="3445" y="470" width="301" height="50" as="geometry" />
        </mxCell>
        <mxCell id="IEH_S26rYbEHb3KUr3_q-38" value="Popularity-Based&#xa;Recommend popular items" style="whiteSpace=wrap;strokeWidth=2;" vertex="1" parent="1">
          <mxGeometry x="3189" y="470" width="206" height="50" as="geometry" />
        </mxCell>
        <mxCell id="IEH_S26rYbEHb3KUr3_q-39" value="Hybrid Recommendations&#xa;Combine multiple techniques" style="whiteSpace=wrap;strokeWidth=2;" vertex="1" parent="1">
          <mxGeometry x="3593" y="595" width="225" height="50" as="geometry" />
        </mxCell>
        <mxCell id="IEH_S26rYbEHb3KUr3_q-40" value="Core Services" style="whiteSpace=wrap;strokeWidth=2;verticalAlign=top;" vertex="1" parent="1">
          <mxGeometry x="1119" y="295" width="4481" height="100" as="geometry" />
        </mxCell>
        <mxCell id="IEH_S26rYbEHb3KUr3_q-41" value="Authentication Service&#xa;Manage user auth" style="whiteSpace=wrap;strokeWidth=2;" vertex="1" parent="1">
          <mxGeometry x="5348" y="320" width="179" height="50" as="geometry" />
        </mxCell>
        <mxCell id="IEH_S26rYbEHb3KUr3_q-42" value="Recommendation Service&#xa;Generate product recommendations" style="whiteSpace=wrap;strokeWidth=2;" vertex="1" parent="1">
          <mxGeometry x="2662" y="320" width="275" height="50" as="geometry" />
        </mxCell>
        <mxCell id="IEH_S26rYbEHb3KUr3_q-43" value="Store Config Service&#xa;Manage store-specific settings" style="whiteSpace=wrap;strokeWidth=2;" vertex="1" parent="1">
          <mxGeometry x="5050" y="320" width="233" height="50" as="geometry" />
        </mxCell>
        <mxCell id="IEH_S26rYbEHb3KUr3_q-44" value="Data Ingestion Service&#xa;Import data from various sources" style="whiteSpace=wrap;strokeWidth=2;" vertex="1" parent="1">
          <mxGeometry x="4635" y="320" width="253" height="50" as="geometry" />
        </mxCell>
        <mxCell id="IEH_S26rYbEHb3KUr3_q-45" value="Client Layer" style="whiteSpace=wrap;strokeWidth=2;verticalAlign=top;" vertex="1" parent="1">
          <mxGeometry x="20" y="20" width="1058" height="100" as="geometry" />
        </mxCell>
        <mxCell id="IEH_S26rYbEHb3KUr3_q-46" value="Store Apps / Websites&#xa;Front-end for customer interaction" style="whiteSpace=wrap;strokeWidth=2;" vertex="1" parent="1">
          <mxGeometry x="55" y="45" width="266" height="50" as="geometry" />
        </mxCell>
        <mxCell id="IEH_S26rYbEHb3KUr3_q-47" value="Admin Dashboards&#xa;Manage system and view analytics" style="whiteSpace=wrap;strokeWidth=2;" vertex="1" parent="1">
          <mxGeometry x="371" y="45" width="261" height="50" as="geometry" />
        </mxCell>
        <mxCell id="IEH_S26rYbEHb3KUr3_q-48" value="User Interface&#xa;UI components for users and admins" style="whiteSpace=wrap;strokeWidth=2;" vertex="1" parent="1">
          <mxGeometry x="725" y="45" width="275" height="50" as="geometry" />
        </mxCell>
        <mxCell id="IEH_S26rYbEHb3KUr3_q-49" value="API Gateway&#xa;Single entry point for all requests" style="whiteSpace=wrap;strokeWidth=2;" vertex="1" parent="1">
          <mxGeometry x="3328" y="195" width="256" height="50" as="geometry" />
        </mxCell>
        <mxCell id="IEH_S26rYbEHb3KUr3_q-50" value="" style="curved=1;startArrow=none;endArrow=block;exitX=0.5;exitY=1;entryX=0;entryY=0.46;rounded=0;fontSize=12;startSize=8;endSize=8;" edge="1" parent="1" source="IEH_S26rYbEHb3KUr3_q-46" target="IEH_S26rYbEHb3KUr3_q-49">
          <mxGeometry relative="1" as="geometry">
            <Array as="points">
              <mxPoint x="188" y="170" />
            </Array>
          </mxGeometry>
        </mxCell>
        <mxCell id="IEH_S26rYbEHb3KUr3_q-51" value="" style="curved=1;startArrow=none;endArrow=block;exitX=0.5;exitY=1;entryX=0;entryY=0.46;rounded=0;fontSize=12;startSize=8;endSize=8;" edge="1" parent="1" source="IEH_S26rYbEHb3KUr3_q-47" target="IEH_S26rYbEHb3KUr3_q-49">
          <mxGeometry relative="1" as="geometry">
            <Array as="points">
              <mxPoint x="502" y="170" />
            </Array>
          </mxGeometry>
        </mxCell>
        <mxCell id="IEH_S26rYbEHb3KUr3_q-52" value="" style="curved=1;startArrow=none;endArrow=block;exitX=1;exitY=0.57;entryX=0.14;entryY=0;rounded=0;fontSize=12;startSize=8;endSize=8;" edge="1" parent="1" source="IEH_S26rYbEHb3KUr3_q-49" target="IEH_S26rYbEHb3KUr3_q-41">
          <mxGeometry relative="1" as="geometry">
            <Array as="points">
              <mxPoint x="5309" y="270" />
              <mxPoint x="5309" y="295" />
            </Array>
          </mxGeometry>
        </mxCell>
        <mxCell id="IEH_S26rYbEHb3KUr3_q-53" value="" style="curved=1;startArrow=none;endArrow=block;exitX=0.52;exitY=1;entryX=1;entryY=0.29;rounded=0;fontSize=12;startSize=8;endSize=8;" edge="1" parent="1" source="IEH_S26rYbEHb3KUr3_q-49" target="IEH_S26rYbEHb3KUr3_q-42">
          <mxGeometry relative="1" as="geometry">
            <Array as="points">
              <mxPoint x="3466" y="270" />
              <mxPoint x="3466" y="295" />
            </Array>
          </mxGeometry>
        </mxCell>
        <mxCell id="IEH_S26rYbEHb3KUr3_q-54" value="" style="curved=1;startArrow=none;endArrow=block;exitX=0.48;exitY=1;entryX=0;entryY=0.43;rounded=0;fontSize=12;startSize=8;endSize=8;" edge="1" parent="1" source="IEH_S26rYbEHb3KUr3_q-49" target="IEH_S26rYbEHb3KUr3_q-43">
          <mxGeometry relative="1" as="geometry">
            <Array as="points">
              <mxPoint x="3446" y="270" />
              <mxPoint x="3446" y="295" />
            </Array>
          </mxGeometry>
        </mxCell>
        <mxCell id="IEH_S26rYbEHb3KUr3_q-55" value="" style="curved=1;startArrow=none;endArrow=block;exitX=0.18;exitY=1;entryX=0;entryY=0.41;rounded=0;fontSize=12;startSize=8;endSize=8;" edge="1" parent="1" source="IEH_S26rYbEHb3KUr3_q-49" target="IEH_S26rYbEHb3KUr3_q-44">
          <mxGeometry relative="1" as="geometry">
            <Array as="points">
              <mxPoint x="3290" y="270" />
              <mxPoint x="3290" y="295" />
            </Array>
          </mxGeometry>
        </mxCell>
        <mxCell id="IEH_S26rYbEHb3KUr3_q-56" value="" style="curved=1;startArrow=none;endArrow=block;exitX=1;exitY=0.61;entryX=0.5;entryY=0;rounded=0;fontSize=12;startSize=8;endSize=8;" edge="1" parent="1" source="IEH_S26rYbEHb3KUr3_q-42" target="IEH_S26rYbEHb3KUr3_q-36">
          <mxGeometry relative="1" as="geometry">
            <Array as="points">
              <mxPoint x="4105" y="395" />
              <mxPoint x="4105" y="420" />
              <mxPoint x="3963" y="445" />
            </Array>
          </mxGeometry>
        </mxCell>
        <mxCell id="IEH_S26rYbEHb3KUr3_q-57" value="" style="curved=1;startArrow=none;endArrow=block;exitX=1;exitY=0.62;entryX=0.5;entryY=0;rounded=0;fontSize=12;startSize=8;endSize=8;" edge="1" parent="1" source="IEH_S26rYbEHb3KUr3_q-42" target="IEH_S26rYbEHb3KUr3_q-37">
          <mxGeometry relative="1" as="geometry">
            <Array as="points">
              <mxPoint x="3911" y="395" />
              <mxPoint x="3911" y="420" />
              <mxPoint x="3595" y="445" />
            </Array>
          </mxGeometry>
        </mxCell>
        <mxCell id="IEH_S26rYbEHb3KUr3_q-58" value="" style="curved=1;startArrow=none;endArrow=block;exitX=1;exitY=0.64;entryX=0.5;entryY=0;rounded=0;fontSize=12;startSize=8;endSize=8;" edge="1" parent="1" source="IEH_S26rYbEHb3KUr3_q-42" target="IEH_S26rYbEHb3KUr3_q-38">
          <mxGeometry relative="1" as="geometry">
            <Array as="points">
              <mxPoint x="3749" y="395" />
              <mxPoint x="3749" y="420" />
              <mxPoint x="3292" y="445" />
            </Array>
          </mxGeometry>
        </mxCell>
        <mxCell id="IEH_S26rYbEHb3KUr3_q-59" value="" style="curved=1;startArrow=none;endArrow=block;exitX=0.64;exitY=1;entryX=1;entryY=0.18;rounded=0;fontSize=12;startSize=8;endSize=8;" edge="1" parent="1" source="IEH_S26rYbEHb3KUr3_q-36" target="IEH_S26rYbEHb3KUr3_q-39">
          <mxGeometry relative="1" as="geometry">
            <Array as="points">
              <mxPoint x="4055" y="545" />
              <mxPoint x="4055" y="570" />
            </Array>
          </mxGeometry>
        </mxCell>
        <mxCell id="IEH_S26rYbEHb3KUr3_q-60" value="" style="curved=1;startArrow=none;endArrow=block;exitX=0.68;exitY=1;entryX=0.5;entryY=0;rounded=0;fontSize=12;startSize=8;endSize=8;" edge="1" parent="1" source="IEH_S26rYbEHb3KUr3_q-37" target="IEH_S26rYbEHb3KUr3_q-39">
          <mxGeometry relative="1" as="geometry">
            <Array as="points">
              <mxPoint x="3706" y="545" />
            </Array>
          </mxGeometry>
        </mxCell>
        <mxCell id="IEH_S26rYbEHb3KUr3_q-61" value="" style="curved=1;startArrow=none;endArrow=block;exitX=0.84;exitY=1;entryX=0;entryY=0.09;rounded=0;fontSize=12;startSize=8;endSize=8;" edge="1" parent="1" source="IEH_S26rYbEHb3KUr3_q-38" target="IEH_S26rYbEHb3KUr3_q-39">
          <mxGeometry relative="1" as="geometry">
            <Array as="points">
              <mxPoint x="3434" y="545" />
              <mxPoint x="3434" y="570" />
            </Array>
          </mxGeometry>
        </mxCell>
        <mxCell id="IEH_S26rYbEHb3KUr3_q-62" value="" style="curved=1;startArrow=none;endArrow=block;exitX=0;exitY=0.3;entryX=0;entryY=0.77;rounded=0;fontSize=12;startSize=8;endSize=8;" edge="1" parent="1" source="IEH_S26rYbEHb3KUr3_q-39" target="IEH_S26rYbEHb3KUr3_q-42">
          <mxGeometry relative="1" as="geometry">
            <Array as="points">
              <mxPoint x="3154" y="570" />
              <mxPoint x="3154" y="445" />
              <mxPoint x="2286" y="420" />
              <mxPoint x="2286" y="395" />
            </Array>
          </mxGeometry>
        </mxCell>
        <mxCell id="IEH_S26rYbEHb3KUr3_q-63" value="" style="curved=1;startArrow=none;endArrow=block;exitX=1;exitY=0.98;entryX=0.92;entryY=0;rounded=0;fontSize=12;startSize=8;endSize=8;" edge="1" parent="1" source="IEH_S26rYbEHb3KUr3_q-44" target="IEH_S26rYbEHb3KUr3_q-31">
          <mxGeometry relative="1" as="geometry">
            <Array as="points">
              <mxPoint x="5025" y="395" />
              <mxPoint x="5025" y="720" />
            </Array>
          </mxGeometry>
        </mxCell>
        <mxCell id="IEH_S26rYbEHb3KUr3_q-64" value="" style="curved=1;startArrow=none;endArrow=block;exitX=0.59;exitY=1;entryX=1;entryY=0.17;rounded=0;fontSize=12;startSize=8;endSize=8;" edge="1" parent="1" source="IEH_S26rYbEHb3KUr3_q-44" target="IEH_S26rYbEHb3KUr3_q-32">
          <mxGeometry relative="1" as="geometry">
            <Array as="points">
              <mxPoint x="4807" y="395" />
              <mxPoint x="4807" y="720" />
            </Array>
          </mxGeometry>
        </mxCell>
        <mxCell id="IEH_S26rYbEHb3KUr3_q-65" value="" style="curved=1;startArrow=none;endArrow=block;exitX=0;exitY=0.77;entryX=1;entryY=0.16;rounded=0;fontSize=12;startSize=8;endSize=8;" edge="1" parent="1" source="IEH_S26rYbEHb3KUr3_q-44" target="IEH_S26rYbEHb3KUr3_q-33">
          <mxGeometry relative="1" as="geometry">
            <Array as="points">
              <mxPoint x="4296" y="395" />
              <mxPoint x="4296" y="720" />
            </Array>
          </mxGeometry>
        </mxCell>
        <mxCell id="IEH_S26rYbEHb3KUr3_q-66" value="" style="curved=1;startArrow=none;endArrow=block;exitX=1;exitY=0.65;entryX=0;entryY=0.41;rounded=0;fontSize=12;startSize=8;endSize=8;" edge="1" parent="1" source="IEH_S26rYbEHb3KUr3_q-42" target="IEH_S26rYbEHb3KUr3_q-31">
          <mxGeometry relative="1" as="geometry">
            <Array as="points">
              <mxPoint x="3729" y="395" />
              <mxPoint x="3729" y="420" />
              <mxPoint x="4186" y="445" />
              <mxPoint x="4186" y="720" />
            </Array>
          </mxGeometry>
        </mxCell>
        <mxCell id="IEH_S26rYbEHb3KUr3_q-67" value="" style="curved=1;startArrow=none;endArrow=block;exitX=1;exitY=0.83;entryX=0;entryY=0.46;rounded=0;fontSize=12;startSize=8;endSize=8;" edge="1" parent="1" source="IEH_S26rYbEHb3KUr3_q-42" target="IEH_S26rYbEHb3KUr3_q-32">
          <mxGeometry relative="1" as="geometry">
            <Array as="points">
              <mxPoint x="3214" y="395" />
              <mxPoint x="3214" y="420" />
              <mxPoint x="3094" y="445" />
              <mxPoint x="3094" y="720" />
            </Array>
          </mxGeometry>
        </mxCell>
        <mxCell id="IEH_S26rYbEHb3KUr3_q-68" value="" style="curved=1;startArrow=none;endArrow=block;exitX=1;exitY=0.85;entryX=0;entryY=0.44;rounded=0;fontSize=12;startSize=8;endSize=8;" edge="1" parent="1" source="IEH_S26rYbEHb3KUr3_q-42" target="IEH_S26rYbEHb3KUr3_q-33">
          <mxGeometry relative="1" as="geometry">
            <Array as="points">
              <mxPoint x="3194" y="395" />
              <mxPoint x="3194" y="420" />
              <mxPoint x="3061" y="445" />
              <mxPoint x="3061" y="720" />
            </Array>
          </mxGeometry>
        </mxCell>
        <mxCell id="IEH_S26rYbEHb3KUr3_q-69" value="" style="curved=1;startArrow=none;endArrow=block;exitX=1;exitY=1;entryX=1;entryY=0.37;rounded=0;fontSize=12;startSize=8;endSize=8;" edge="1" parent="1" source="IEH_S26rYbEHb3KUr3_q-43" target="IEH_S26rYbEHb3KUr3_q-31">
          <mxGeometry relative="1" as="geometry">
            <Array as="points">
              <mxPoint x="5399" y="395" />
              <mxPoint x="5399" y="720" />
            </Array>
          </mxGeometry>
        </mxCell>
        <mxCell id="IEH_S26rYbEHb3KUr3_q-70" value="" style="curved=1;startArrow=none;endArrow=block;exitX=0.45;exitY=1;entryX=1;entryY=0.38;rounded=0;fontSize=12;startSize=8;endSize=8;" edge="1" parent="1" source="IEH_S26rYbEHb3KUr3_q-43" target="IEH_S26rYbEHb3KUr3_q-32">
          <mxGeometry relative="1" as="geometry">
            <Array as="points">
              <mxPoint x="5144" y="395" />
              <mxPoint x="5144" y="720" />
            </Array>
          </mxGeometry>
        </mxCell>
        <mxCell id="IEH_S26rYbEHb3KUr3_q-71" value="" style="curved=1;startArrow=none;endArrow=block;exitX=0.24;exitY=1;entryX=1;entryY=0.43;rounded=0;fontSize=12;startSize=8;endSize=8;" edge="1" parent="1" source="IEH_S26rYbEHb3KUr3_q-43" target="IEH_S26rYbEHb3KUr3_q-33">
          <mxGeometry relative="1" as="geometry">
            <Array as="points">
              <mxPoint x="5045" y="395" />
              <mxPoint x="5045" y="720" />
            </Array>
          </mxGeometry>
        </mxCell>
        <mxCell id="IEH_S26rYbEHb3KUr3_q-72" value="" style="curved=1;startArrow=none;endArrow=block;exitX=0;exitY=0.76;entryX=0;entryY=0.4;rounded=0;fontSize=12;startSize=8;endSize=8;" edge="1" parent="1" source="IEH_S26rYbEHb3KUr3_q-44" target="IEH_S26rYbEHb3KUr3_q-31">
          <mxGeometry relative="1" as="geometry">
            <Array as="points">
              <mxPoint x="4276" y="395" />
              <mxPoint x="4276" y="720" />
            </Array>
          </mxGeometry>
        </mxCell>
        <mxCell id="IEH_S26rYbEHb3KUr3_q-73" value="" style="curved=1;startArrow=none;endArrow=block;exitX=0;exitY=0.75;entryX=0;entryY=0.32;rounded=0;fontSize=12;startSize=8;endSize=8;" edge="1" parent="1" source="IEH_S26rYbEHb3KUr3_q-44" target="IEH_S26rYbEHb3KUr3_q-32">
          <mxGeometry relative="1" as="geometry">
            <Array as="points">
              <mxPoint x="4256" y="395" />
              <mxPoint x="4256" y="720" />
            </Array>
          </mxGeometry>
        </mxCell>
        <mxCell id="IEH_S26rYbEHb3KUr3_q-74" value="" style="curved=1;startArrow=none;endArrow=block;exitX=0;exitY=0.74;entryX=1;entryY=0.01;rounded=0;fontSize=12;startSize=8;endSize=8;" edge="1" parent="1" source="IEH_S26rYbEHb3KUr3_q-44" target="IEH_S26rYbEHb3KUr3_q-33">
          <mxGeometry relative="1" as="geometry">
            <Array as="points">
              <mxPoint x="4236" y="395" />
              <mxPoint x="4236" y="720" />
            </Array>
          </mxGeometry>
        </mxCell>
        <mxCell id="IEH_S26rYbEHb3KUr3_q-75" value="" style="curved=1;startArrow=none;endArrow=block;exitX=0.34;exitY=1;entryX=1;entryY=0.24;rounded=0;fontSize=12;startSize=8;endSize=8;" edge="1" parent="1" source="IEH_S26rYbEHb3KUr3_q-36" target="IEH_S26rYbEHb3KUr3_q-34">
          <mxGeometry relative="1" as="geometry">
            <Array as="points">
              <mxPoint x="3853" y="545" />
              <mxPoint x="3853" y="720" />
            </Array>
          </mxGeometry>
        </mxCell>
        <mxCell id="IEH_S26rYbEHb3KUr3_q-76" value="" style="curved=1;startArrow=none;endArrow=block;exitX=0.26;exitY=1;entryX=0;entryY=0.17;rounded=0;fontSize=12;startSize=8;endSize=8;" edge="1" parent="1" source="IEH_S26rYbEHb3KUr3_q-37" target="IEH_S26rYbEHb3KUr3_q-34">
          <mxGeometry relative="1" as="geometry">
            <Array as="points">
              <mxPoint x="3454" y="545" />
              <mxPoint x="3454" y="720" />
            </Array>
          </mxGeometry>
        </mxCell>
        <mxCell id="IEH_S26rYbEHb3KUr3_q-77" value="" style="curved=1;startArrow=none;endArrow=block;exitX=0.36;exitY=1;entryX=0;entryY=0.35;rounded=0;fontSize=12;startSize=8;endSize=8;" edge="1" parent="1" source="IEH_S26rYbEHb3KUr3_q-38" target="IEH_S26rYbEHb3KUr3_q-34">
          <mxGeometry relative="1" as="geometry">
            <Array as="points">
              <mxPoint x="3233" y="545" />
              <mxPoint x="3233" y="720" />
            </Array>
          </mxGeometry>
        </mxCell>
        <mxCell id="IEH_S26rYbEHb3KUr3_q-78" value="" style="curved=1;startArrow=none;endArrow=block;exitX=0.5;exitY=1;entryX=0.81;entryY=0;rounded=0;fontSize=12;startSize=8;endSize=8;" edge="1" parent="1" source="IEH_S26rYbEHb3KUr3_q-39" target="IEH_S26rYbEHb3KUr3_q-34">
          <mxGeometry relative="1" as="geometry">
            <Array as="points">
              <mxPoint x="3706" y="720" />
            </Array>
          </mxGeometry>
        </mxCell>
        <mxCell id="IEH_S26rYbEHb3KUr3_q-79" value="" style="curved=1;startArrow=none;endArrow=block;exitX=1;exitY=0.55;entryX=1;entryY=0.44;rounded=0;fontSize=12;startSize=8;endSize=8;" edge="1" parent="1" source="IEH_S26rYbEHb3KUr3_q-28" target="IEH_S26rYbEHb3KUr3_q-49">
          <mxGeometry relative="1" as="geometry">
            <Array as="points">
              <mxPoint x="5457" y="120" />
              <mxPoint x="5457" y="170" />
            </Array>
          </mxGeometry>
        </mxCell>
        <mxCell id="IEH_S26rYbEHb3KUr3_q-80" value="" style="curved=1;startArrow=none;endArrow=block;exitX=1;exitY=0.55;entryX=0.5;entryY=0;rounded=0;fontSize=12;startSize=8;endSize=8;" edge="1" parent="1" source="IEH_S26rYbEHb3KUr3_q-28" target="IEH_S26rYbEHb3KUr3_q-41">
          <mxGeometry relative="1" as="geometry">
            <Array as="points">
              <mxPoint x="5437" y="120" />
            </Array>
          </mxGeometry>
        </mxCell>
        <mxCell id="IEH_S26rYbEHb3KUr3_q-81" value="" style="curved=1;startArrow=none;endArrow=block;exitX=1;exitY=0.56;entryX=1;entryY=0.45;rounded=0;fontSize=12;startSize=8;endSize=8;" edge="1" parent="1" source="IEH_S26rYbEHb3KUr3_q-28" target="IEH_S26rYbEHb3KUr3_q-42">
          <mxGeometry relative="1" as="geometry">
            <Array as="points">
              <mxPoint x="5401" y="120" />
              <mxPoint x="5401" y="295" />
            </Array>
          </mxGeometry>
        </mxCell>
        <mxCell id="IEH_S26rYbEHb3KUr3_q-82" value="" style="curved=1;startArrow=none;endArrow=block;exitX=0;exitY=0.88;entryX=0;entryY=0.44;rounded=0;fontSize=12;startSize=8;endSize=8;" edge="1" parent="1" source="IEH_S26rYbEHb3KUr3_q-28" target="IEH_S26rYbEHb3KUr3_q-43">
          <mxGeometry relative="1" as="geometry">
            <Array as="points">
              <mxPoint x="3198" y="120" />
              <mxPoint x="3198" y="295" />
            </Array>
          </mxGeometry>
        </mxCell>
        <mxCell id="IEH_S26rYbEHb3KUr3_q-83" value="" style="curved=1;startArrow=none;endArrow=block;exitX=0;exitY=0.85;entryX=0;entryY=0.42;rounded=0;fontSize=12;startSize=8;endSize=8;" edge="1" parent="1" source="IEH_S26rYbEHb3KUr3_q-28" target="IEH_S26rYbEHb3KUr3_q-44">
          <mxGeometry relative="1" as="geometry">
            <Array as="points">
              <mxPoint x="3178" y="120" />
              <mxPoint x="3178" y="295" />
            </Array>
          </mxGeometry>
        </mxCell>
        <mxCell id="IEH_S26rYbEHb3KUr3_q-84" value="" style="curved=1;startArrow=none;endArrow=block;exitX=0.69;exitY=1;entryX=1;entryY=0.44;rounded=0;fontSize=12;startSize=8;endSize=8;" edge="1" parent="1" source="IEH_S26rYbEHb3KUr3_q-29" target="IEH_S26rYbEHb3KUr3_q-49">
          <mxGeometry relative="1" as="geometry">
            <Array as="points">
              <mxPoint x="5690" y="120" />
              <mxPoint x="5690" y="170" />
            </Array>
          </mxGeometry>
        </mxCell>
        <mxCell id="IEH_S26rYbEHb3KUr3_q-85" value="" style="curved=1;startArrow=none;endArrow=block;exitX=0.64;exitY=1;entryX=0.86;entryY=0;rounded=0;fontSize=12;startSize=8;endSize=8;" edge="1" parent="1" source="IEH_S26rYbEHb3KUr3_q-29" target="IEH_S26rYbEHb3KUr3_q-41">
          <mxGeometry relative="1" as="geometry">
            <Array as="points">
              <mxPoint x="5670" y="120" />
              <mxPoint x="5670" y="270" />
              <mxPoint x="5567" y="295" />
            </Array>
          </mxGeometry>
        </mxCell>
        <mxCell id="IEH_S26rYbEHb3KUr3_q-86" value="" style="curved=1;startArrow=none;endArrow=block;exitX=0.59;exitY=1;entryX=1;entryY=0.45;rounded=0;fontSize=12;startSize=8;endSize=8;" edge="1" parent="1" source="IEH_S26rYbEHb3KUr3_q-29" target="IEH_S26rYbEHb3KUr3_q-42">
          <mxGeometry relative="1" as="geometry">
            <Array as="points">
              <mxPoint x="5650" y="120" />
              <mxPoint x="5650" y="270" />
              <mxPoint x="5547" y="295" />
            </Array>
          </mxGeometry>
        </mxCell>
        <mxCell id="IEH_S26rYbEHb3KUr3_q-87" value="" style="curved=1;startArrow=none;endArrow=block;exitX=0.55;exitY=1;entryX=1;entryY=0.18;rounded=0;fontSize=12;startSize=8;endSize=8;" edge="1" parent="1" source="IEH_S26rYbEHb3KUr3_q-29" target="IEH_S26rYbEHb3KUr3_q-43">
          <mxGeometry relative="1" as="geometry">
            <Array as="points">
              <mxPoint x="5630" y="120" />
              <mxPoint x="5630" y="270" />
              <mxPoint x="5527" y="295" />
            </Array>
          </mxGeometry>
        </mxCell>
        <mxCell id="IEH_S26rYbEHb3KUr3_q-88" value="" style="curved=1;startArrow=none;endArrow=block;exitX=0.5;exitY=1;entryX=1;entryY=0.33;rounded=0;fontSize=12;startSize=8;endSize=8;" edge="1" parent="1" source="IEH_S26rYbEHb3KUr3_q-29" target="IEH_S26rYbEHb3KUr3_q-44">
          <mxGeometry relative="1" as="geometry">
            <Array as="points">
              <mxPoint x="5610" y="270" />
              <mxPoint x="5507" y="295" />
            </Array>
          </mxGeometry>
        </mxCell>
        <mxCell id="IEH_S26rYbEHb3KUr3_q-89" value="" style="curved=1;startArrow=none;endArrow=block;exitX=0.45;exitY=1;entryX=1;entryY=0.42;rounded=0;fontSize=12;startSize=8;endSize=8;" edge="1" parent="1" source="IEH_S26rYbEHb3KUr3_q-29" target="IEH_S26rYbEHb3KUr3_q-31">
          <mxGeometry relative="1" as="geometry">
            <Array as="points">
              <mxPoint x="5590" y="120" />
              <mxPoint x="5590" y="270" />
              <mxPoint x="5680" y="295" />
              <mxPoint x="5680" y="720" />
            </Array>
          </mxGeometry>
        </mxCell>
        <mxCell id="IEH_S26rYbEHb3KUr3_q-90" value="" style="curved=1;startArrow=none;endArrow=block;exitX=0.4;exitY=1;entryX=1;entryY=0.44;rounded=0;fontSize=12;startSize=8;endSize=8;" edge="1" parent="1" source="IEH_S26rYbEHb3KUr3_q-29" target="IEH_S26rYbEHb3KUr3_q-32">
          <mxGeometry relative="1" as="geometry">
            <Array as="points">
              <mxPoint x="5570" y="120" />
              <mxPoint x="5570" y="270" />
              <mxPoint x="5660" y="295" />
              <mxPoint x="5660" y="720" />
            </Array>
          </mxGeometry>
        </mxCell>
        <mxCell id="IEH_S26rYbEHb3KUr3_q-91" value="" style="curved=1;startArrow=none;endArrow=block;exitX=0.36;exitY=1;entryX=1;entryY=0.46;rounded=0;fontSize=12;startSize=8;endSize=8;" edge="1" parent="1" source="IEH_S26rYbEHb3KUr3_q-29" target="IEH_S26rYbEHb3KUr3_q-33">
          <mxGeometry relative="1" as="geometry">
            <Array as="points">
              <mxPoint x="5550" y="120" />
              <mxPoint x="5550" y="270" />
              <mxPoint x="5640" y="295" />
              <mxPoint x="5640" y="720" />
            </Array>
          </mxGeometry>
        </mxCell>
        <mxCell id="IEH_S26rYbEHb3KUr3_q-92" value="" style="curved=1;startArrow=none;endArrow=block;exitX=0.31;exitY=1;entryX=1;entryY=0.47;rounded=0;fontSize=12;startSize=8;endSize=8;" edge="1" parent="1" source="IEH_S26rYbEHb3KUr3_q-29" target="IEH_S26rYbEHb3KUr3_q-34">
          <mxGeometry relative="1" as="geometry">
            <Array as="points">
              <mxPoint x="5530" y="120" />
              <mxPoint x="5530" y="270" />
              <mxPoint x="5620" y="295" />
              <mxPoint x="5620" y="720" />
            </Array>
          </mxGeometry>
        </mxCell>
        <mxCell id="IEH_S26rYbEHb3KUr3_q-93" value="" style="curved=1;startArrow=none;endArrow=block;exitX=1;exitY=0.94;entryX=0.52;entryY=0;rounded=0;fontSize=12;startSize=8;endSize=8;" edge="1" parent="1" source="IEH_S26rYbEHb3KUr3_q-31" target="IEH_S26rYbEHb3KUr3_q-23">
          <mxGeometry relative="1" as="geometry">
            <Array as="points">
              <mxPoint x="5065" y="863" />
              <mxPoint x="5065" y="888" />
              <mxPoint x="4204" y="913" />
            </Array>
          </mxGeometry>
        </mxCell>
        <mxCell id="IEH_S26rYbEHb3KUr3_q-94" value="" style="curved=1;startArrow=none;endArrow=block;exitX=1;exitY=0.89;entryX=0.24;entryY=0;rounded=0;fontSize=12;startSize=8;endSize=8;" edge="1" parent="1" source="IEH_S26rYbEHb3KUr3_q-32" target="IEH_S26rYbEHb3KUr3_q-23">
          <mxGeometry relative="1" as="geometry">
            <Array as="points">
              <mxPoint x="4778" y="863" />
              <mxPoint x="4778" y="888" />
              <mxPoint x="4085" y="913" />
            </Array>
          </mxGeometry>
        </mxCell>
        <mxCell id="IEH_S26rYbEHb3KUr3_q-95" value="" style="curved=1;startArrow=none;endArrow=block;exitX=0.81;exitY=1;entryX=0;entryY=0.03;rounded=0;fontSize=12;startSize=8;endSize=8;" edge="1" parent="1" source="IEH_S26rYbEHb3KUr3_q-33" target="IEH_S26rYbEHb3KUr3_q-23">
          <mxGeometry relative="1" as="geometry">
            <Array as="points">
              <mxPoint x="4181" y="863" />
              <mxPoint x="4181" y="888" />
              <mxPoint x="3975" y="913" />
            </Array>
          </mxGeometry>
        </mxCell>
        <mxCell id="IEH_S26rYbEHb3KUr3_q-96" value="" style="curved=1;startArrow=none;endArrow=block;exitX=0.5;exitY=1;entryX=0.5;entryY=0;rounded=0;fontSize=12;startSize=8;endSize=8;" edge="1" parent="1" source="IEH_S26rYbEHb3KUr3_q-23" target="IEH_S26rYbEHb3KUr3_q-24">
          <mxGeometry relative="1" as="geometry">
            <Array as="points" />
          </mxGeometry>
        </mxCell>
        <mxCell id="IEH_S26rYbEHb3KUr3_q-97" value="" style="curved=1;startArrow=none;endArrow=block;exitX=0.5;exitY=1;entryX=0.5;entryY=0;rounded=0;fontSize=12;startSize=8;endSize=8;" edge="1" parent="1" source="IEH_S26rYbEHb3KUr3_q-24" target="IEH_S26rYbEHb3KUr3_q-25">
          <mxGeometry relative="1" as="geometry">
            <Array as="points" />
          </mxGeometry>
        </mxCell>
        <mxCell id="IEH_S26rYbEHb3KUr3_q-98" value="" style="curved=1;startArrow=none;endArrow=block;exitX=0.5;exitY=1;entryX=0.5;entryY=0;rounded=0;fontSize=12;startSize=8;endSize=8;" edge="1" parent="1" source="IEH_S26rYbEHb3KUr3_q-25" target="IEH_S26rYbEHb3KUr3_q-26">
          <mxGeometry relative="1" as="geometry">
            <Array as="points" />
          </mxGeometry>
        </mxCell>
        <mxCell id="IEH_S26rYbEHb3KUr3_q-99" value="" style="curved=1;startArrow=none;endArrow=block;exitX=0;exitY=0.09;entryX=0;entryY=0.58;rounded=0;fontSize=12;startSize=8;endSize=8;" edge="1" parent="1" source="IEH_S26rYbEHb3KUr3_q-26" target="IEH_S26rYbEHb3KUr3_q-42">
          <mxGeometry relative="1" as="geometry">
            <Array as="points">
              <mxPoint x="3955" y="1238" />
              <mxPoint x="3955" y="913" />
              <mxPoint x="1179" y="888" />
              <mxPoint x="1179" y="395" />
            </Array>
          </mxGeometry>
        </mxCell>
        <mxCell id="IEH_S26rYbEHb3KUr3_q-100" value="" style="curved=1;startArrow=none;endArrow=block;exitX=0.27;exitY=1;entryX=0.61;entryY=0;rounded=0;fontSize=12;startSize=8;endSize=8;" edge="1" parent="1" source="IEH_S26rYbEHb3KUr3_q-31" target="IEH_S26rYbEHb3KUr3_q-5">
          <mxGeometry relative="1" as="geometry">
            <Array as="points">
              <mxPoint x="4858" y="863" />
              <mxPoint x="4858" y="888" />
              <mxPoint x="5347" y="913" />
            </Array>
          </mxGeometry>
        </mxCell>
        <mxCell id="IEH_S26rYbEHb3KUr3_q-101" value="" style="curved=1;startArrow=none;endArrow=block;exitX=0.2;exitY=1;entryX=0.95;entryY=0;rounded=0;fontSize=12;startSize=8;endSize=8;" edge="1" parent="1" source="IEH_S26rYbEHb3KUr3_q-31" target="IEH_S26rYbEHb3KUr3_q-6">
          <mxGeometry relative="1" as="geometry">
            <Array as="points">
              <mxPoint x="4838" y="863" />
              <mxPoint x="4838" y="888" />
              <mxPoint x="5203" y="913" />
            </Array>
          </mxGeometry>
        </mxCell>
        <mxCell id="IEH_S26rYbEHb3KUr3_q-102" value="" style="curved=1;startArrow=none;endArrow=block;exitX=0.12;exitY=1;entryX=1;entryY=0.19;rounded=0;fontSize=12;startSize=8;endSize=8;" edge="1" parent="1" source="IEH_S26rYbEHb3KUr3_q-31" target="IEH_S26rYbEHb3KUr3_q-7">
          <mxGeometry relative="1" as="geometry">
            <Array as="points">
              <mxPoint x="4818" y="863" />
              <mxPoint x="4818" y="888" />
              <mxPoint x="5074" y="913" />
            </Array>
          </mxGeometry>
        </mxCell>
        <mxCell id="IEH_S26rYbEHb3KUr3_q-103" value="" style="curved=1;startArrow=none;endArrow=block;exitX=0.04;exitY=1;entryX=1;entryY=0.22;rounded=0;fontSize=12;startSize=8;endSize=8;" edge="1" parent="1" source="IEH_S26rYbEHb3KUr3_q-31" target="IEH_S26rYbEHb3KUr3_q-8">
          <mxGeometry relative="1" as="geometry">
            <Array as="points">
              <mxPoint x="4798" y="863" />
              <mxPoint x="4798" y="888" />
              <mxPoint x="4936" y="913" />
            </Array>
          </mxGeometry>
        </mxCell>
        <mxCell id="IEH_S26rYbEHb3KUr3_q-104" value="" style="curved=1;startArrow=none;endArrow=block;exitX=1;exitY=0.94;entryX=0;entryY=0.19;rounded=0;fontSize=12;startSize=8;endSize=8;" edge="1" parent="1" source="IEH_S26rYbEHb3KUr3_q-32" target="IEH_S26rYbEHb3KUr3_q-5">
          <mxGeometry relative="1" as="geometry">
            <Array as="points">
              <mxPoint x="4758" y="863" />
              <mxPoint x="4758" y="888" />
              <mxPoint x="4906" y="913" />
            </Array>
          </mxGeometry>
        </mxCell>
        <mxCell id="IEH_S26rYbEHb3KUr3_q-105" value="" style="curved=1;startArrow=none;endArrow=block;exitX=0;exitY=0.95;entryX=0;entryY=0.14;rounded=0;fontSize=12;startSize=8;endSize=8;" edge="1" parent="1" source="IEH_S26rYbEHb3KUr3_q-32" target="IEH_S26rYbEHb3KUr3_q-6">
          <mxGeometry relative="1" as="geometry">
            <Array as="points">
              <mxPoint x="4468" y="863" />
              <mxPoint x="4468" y="888" />
              <mxPoint x="4757" y="913" />
            </Array>
          </mxGeometry>
        </mxCell>
        <mxCell id="IEH_S26rYbEHb3KUr3_q-106" value="" style="curved=1;startArrow=none;endArrow=block;exitX=0;exitY=0.74;entryX=0.06;entryY=0;rounded=0;fontSize=12;startSize=8;endSize=8;" edge="1" parent="1" source="IEH_S26rYbEHb3KUr3_q-32" target="IEH_S26rYbEHb3KUr3_q-7">
          <mxGeometry relative="1" as="geometry">
            <Array as="points">
              <mxPoint x="4339" y="863" />
              <mxPoint x="4339" y="888" />
              <mxPoint x="4628" y="913" />
            </Array>
          </mxGeometry>
        </mxCell>
        <mxCell id="IEH_S26rYbEHb3KUr3_q-107" value="" style="curved=1;startArrow=none;endArrow=block;exitX=0;exitY=0.66;entryX=0.41;entryY=0;rounded=0;fontSize=12;startSize=8;endSize=8;" edge="1" parent="1" source="IEH_S26rYbEHb3KUr3_q-32" target="IEH_S26rYbEHb3KUr3_q-8">
          <mxGeometry relative="1" as="geometry">
            <Array as="points">
              <mxPoint x="4201" y="863" />
              <mxPoint x="4201" y="888" />
              <mxPoint x="4490" y="913" />
            </Array>
          </mxGeometry>
        </mxCell>
        <mxCell id="IEH_S26rYbEHb3KUr3_q-108" value="" style="curved=1;startArrow=none;endArrow=block;exitX=0.48;exitY=1;entryX=0;entryY=0.36;rounded=0;fontSize=12;startSize=8;endSize=8;" edge="1" parent="1" source="IEH_S26rYbEHb3KUr3_q-33" target="IEH_S26rYbEHb3KUr3_q-5">
          <mxGeometry relative="1" as="geometry">
            <Array as="points">
              <mxPoint x="4096" y="863" />
              <mxPoint x="4096" y="888" />
              <mxPoint x="4454" y="913" />
            </Array>
          </mxGeometry>
        </mxCell>
        <mxCell id="IEH_S26rYbEHb3KUr3_q-109" value="" style="curved=1;startArrow=none;endArrow=block;exitX=0.4;exitY=1;entryX=0;entryY=0.34;rounded=0;fontSize=12;startSize=8;endSize=8;" edge="1" parent="1" source="IEH_S26rYbEHb3KUr3_q-33" target="IEH_S26rYbEHb3KUr3_q-6">
          <mxGeometry relative="1" as="geometry">
            <Array as="points">
              <mxPoint x="4076" y="863" />
              <mxPoint x="4076" y="888" />
              <mxPoint x="4434" y="913" />
            </Array>
          </mxGeometry>
        </mxCell>
        <mxCell id="IEH_S26rYbEHb3KUr3_q-110" value="" style="curved=1;startArrow=none;endArrow=block;exitX=0;exitY=0.62;entryX=0;entryY=0.26;rounded=0;fontSize=12;startSize=8;endSize=8;" edge="1" parent="1" source="IEH_S26rYbEHb3KUr3_q-33" target="IEH_S26rYbEHb3KUr3_q-7">
          <mxGeometry relative="1" as="geometry">
            <Array as="points">
              <mxPoint x="3532" y="863" />
              <mxPoint x="3532" y="888" />
              <mxPoint x="4414" y="913" />
            </Array>
          </mxGeometry>
        </mxCell>
        <mxCell id="IEH_S26rYbEHb3KUr3_q-111" value="" style="curved=1;startArrow=none;endArrow=block;exitX=0;exitY=0.59;entryX=0.21;entryY=0;rounded=0;fontSize=12;startSize=8;endSize=8;" edge="1" parent="1" source="IEH_S26rYbEHb3KUr3_q-33" target="IEH_S26rYbEHb3KUr3_q-8">
          <mxGeometry relative="1" as="geometry">
            <Array as="points">
              <mxPoint x="3394" y="863" />
              <mxPoint x="3394" y="888" />
              <mxPoint x="4394" y="913" />
            </Array>
          </mxGeometry>
        </mxCell>
        <mxCell id="IEH_S26rYbEHb3KUr3_q-112" value="" style="curved=1;startArrow=none;endArrow=block;exitX=1;exitY=0.95;entryX=0.5;entryY=0;rounded=0;fontSize=12;startSize=8;endSize=8;" edge="1" parent="1" source="IEH_S26rYbEHb3KUr3_q-42" target="IEH_S26rYbEHb3KUr3_q-19">
          <mxGeometry relative="1" as="geometry">
            <Array as="points">
              <mxPoint x="3103" y="395" />
              <mxPoint x="3103" y="420" />
              <mxPoint x="2797" y="445" />
            </Array>
          </mxGeometry>
        </mxCell>
        <mxCell id="IEH_S26rYbEHb3KUr3_q-113" value="" style="curved=1;startArrow=none;endArrow=block;exitX=0.79;exitY=1;entryX=0.5;entryY=0;rounded=0;fontSize=12;startSize=8;endSize=8;" edge="1" parent="1" source="IEH_S26rYbEHb3KUr3_q-42" target="IEH_S26rYbEHb3KUr3_q-20">
          <mxGeometry relative="1" as="geometry">
            <Array as="points">
              <mxPoint x="2959" y="395" />
              <mxPoint x="2959" y="420" />
              <mxPoint x="2531" y="445" />
            </Array>
          </mxGeometry>
        </mxCell>
        <mxCell id="IEH_S26rYbEHb3KUr3_q-114" value="" style="curved=1;startArrow=none;endArrow=block;exitX=0.51;exitY=1;entryX=0.5;entryY=0;rounded=0;fontSize=12;startSize=8;endSize=8;" edge="1" parent="1" source="IEH_S26rYbEHb3KUr3_q-42" target="IEH_S26rYbEHb3KUr3_q-21">
          <mxGeometry relative="1" as="geometry">
            <Array as="points">
              <mxPoint x="2806" y="395" />
              <mxPoint x="2806" y="420" />
              <mxPoint x="2244" y="445" />
            </Array>
          </mxGeometry>
        </mxCell>
        <mxCell id="IEH_S26rYbEHb3KUr3_q-115" value="" style="curved=1;startArrow=none;endArrow=block;exitX=0.19;exitY=1;entryX=0.5;entryY=0;rounded=0;fontSize=12;startSize=8;endSize=8;" edge="1" parent="1" source="IEH_S26rYbEHb3KUr3_q-42" target="IEH_S26rYbEHb3KUr3_q-14">
          <mxGeometry relative="1" as="geometry">
            <Array as="points">
              <mxPoint x="2627" y="395" />
              <mxPoint x="2627" y="420" />
              <mxPoint x="1906" y="445" />
            </Array>
          </mxGeometry>
        </mxCell>
        <mxCell id="IEH_S26rYbEHb3KUr3_q-116" value="" style="curved=1;startArrow=none;endArrow=block;exitX=0.5;exitY=1;entryX=0.5;entryY=0;rounded=0;fontSize=12;startSize=8;endSize=8;" edge="1" parent="1" source="IEH_S26rYbEHb3KUr3_q-14" target="IEH_S26rYbEHb3KUr3_q-15">
          <mxGeometry relative="1" as="geometry">
            <Array as="points" />
          </mxGeometry>
        </mxCell>
        <mxCell id="IEH_S26rYbEHb3KUr3_q-117" value="" style="curved=1;startArrow=none;endArrow=block;exitX=0.5;exitY=1;entryX=0.5;entryY=-0.01;rounded=0;fontSize=12;startSize=8;endSize=8;" edge="1" parent="1" source="IEH_S26rYbEHb3KUr3_q-15" target="IEH_S26rYbEHb3KUr3_q-16">
          <mxGeometry relative="1" as="geometry">
            <Array as="points" />
          </mxGeometry>
        </mxCell>
        <mxCell id="IEH_S26rYbEHb3KUr3_q-118" value="" style="curved=1;startArrow=none;endArrow=block;exitX=0.5;exitY=0.99;entryX=0.5;entryY=0;rounded=0;fontSize=12;startSize=8;endSize=8;" edge="1" parent="1" source="IEH_S26rYbEHb3KUr3_q-16" target="IEH_S26rYbEHb3KUr3_q-17">
          <mxGeometry relative="1" as="geometry">
            <Array as="points" />
          </mxGeometry>
        </mxCell>
        <mxCell id="IEH_S26rYbEHb3KUr3_q-119" value="" style="curved=1;startArrow=none;endArrow=block;exitX=0.72;exitY=1;entryX=0.5;entryY=0;rounded=0;fontSize=12;startSize=8;endSize=8;" edge="1" parent="1" source="IEH_S26rYbEHb3KUr3_q-48" target="IEH_S26rYbEHb3KUr3_q-10">
          <mxGeometry relative="1" as="geometry">
            <Array as="points">
              <mxPoint x="982" y="120" />
            </Array>
          </mxGeometry>
        </mxCell>
        <mxCell id="IEH_S26rYbEHb3KUr3_q-120" value="" style="curved=1;startArrow=none;endArrow=block;exitX=0.28;exitY=1;entryX=0.5;entryY=0;rounded=0;fontSize=12;startSize=8;endSize=8;" edge="1" parent="1" source="IEH_S26rYbEHb3KUr3_q-48" target="IEH_S26rYbEHb3KUr3_q-11">
          <mxGeometry relative="1" as="geometry">
            <Array as="points">
              <mxPoint x="742" y="120" />
            </Array>
          </mxGeometry>
        </mxCell>
        <mxCell id="IEH_S26rYbEHb3KUr3_q-121" value="" style="curved=1;startArrow=none;endArrow=block;exitX=0.15;exitY=1;entryX=0.64;entryY=0;rounded=0;fontSize=12;startSize=8;endSize=8;" edge="1" parent="1" source="IEH_S26rYbEHb3KUr3_q-42" target="IEH_S26rYbEHb3KUr3_q-12">
          <mxGeometry relative="1" as="geometry">
            <Array as="points">
              <mxPoint x="2607" y="395" />
              <mxPoint x="906" y="420" />
              <mxPoint x="906" y="445" />
            </Array>
          </mxGeometry>
        </mxCell>
        <mxCell id="IEH_S26rYbEHb3KUr3_q-122" value="" style="curved=1;startArrow=none;endArrow=block;exitX=0.5;exitY=1;entryX=0;entryY=0.42;rounded=0;fontSize=12;startSize=8;endSize=8;" edge="1" parent="1" source="IEH_S26rYbEHb3KUr3_q-10" target="IEH_S26rYbEHb3KUr3_q-42">
          <mxGeometry relative="1" as="geometry">
            <Array as="points">
              <mxPoint x="982" y="295" />
            </Array>
          </mxGeometry>
        </mxCell>
        <mxCell id="IEH_S26rYbEHb3KUr3_q-123" value="" style="curved=1;startArrow=none;endArrow=block;exitX=0.5;exitY=1;entryX=0;entryY=0.43;rounded=0;fontSize=12;startSize=8;endSize=8;" edge="1" parent="1" source="IEH_S26rYbEHb3KUr3_q-11" target="IEH_S26rYbEHb3KUr3_q-42">
          <mxGeometry relative="1" as="geometry">
            <Array as="points">
              <mxPoint x="742" y="295" />
            </Array>
          </mxGeometry>
        </mxCell>
        <mxCell id="IEH_S26rYbEHb3KUr3_q-124" value="" style="curved=1;startArrow=none;endArrow=block;exitX=0.35;exitY=0;entryX=0;entryY=0.58;rounded=0;fontSize=12;startSize=8;endSize=8;" edge="1" parent="1" source="IEH_S26rYbEHb3KUr3_q-12" target="IEH_S26rYbEHb3KUr3_q-42">
          <mxGeometry relative="1" as="geometry">
            <Array as="points">
              <mxPoint x="793" y="445" />
              <mxPoint x="793" y="420" />
              <mxPoint x="1159" y="395" />
            </Array>
          </mxGeometry>
        </mxCell>
        <mxCell id="IEH_S26rYbEHb3KUr3_q-125" value="" style="curved=1;startArrow=none;endArrow=block;exitX=0;exitY=0.89;entryX=0.5;entryY=0;rounded=0;fontSize=12;startSize=8;endSize=8;" edge="1" parent="1" source="IEH_S26rYbEHb3KUr3_q-42" target="IEH_S26rYbEHb3KUr3_q-2">
          <mxGeometry relative="1" as="geometry">
            <Array as="points">
              <mxPoint x="2444" y="395" />
              <mxPoint x="2444" y="420" />
              <mxPoint x="1580" y="445" />
            </Array>
          </mxGeometry>
        </mxCell>
        <mxCell id="IEH_S26rYbEHb3KUr3_q-126" value="" style="curved=1;startArrow=none;endArrow=block;exitX=0;exitY=0.78;entryX=0.5;entryY=0;rounded=0;fontSize=12;startSize=8;endSize=8;" edge="1" parent="1" source="IEH_S26rYbEHb3KUr3_q-42" target="IEH_S26rYbEHb3KUr3_q-3">
          <mxGeometry relative="1" as="geometry">
            <Array as="points">
              <mxPoint x="2306" y="395" />
              <mxPoint x="2306" y="420" />
              <mxPoint x="1324" y="445" />
            </Array>
          </mxGeometry>
        </mxCell>
      </root>
    </mxGraphModel>
  </diagram>
  <diagram id="NEqPJ9KgWbjHv9wxqGjW" name="Flow Diagram">
    <mxGraphModel dx="2049" dy="1149" grid="0" gridSize="10" guides="1" tooltips="1" connect="1" arrows="1" fold="1" page="0" pageScale="1" pageWidth="850" pageHeight="1100" math="0" shadow="0">
      <root>
        <mxCell id="0" />
        <mxCell id="1" parent="0" />
        <mxCell id="Tx8FIVoKTxQ0BMYuGaSS-2" value="Monitoring and Evaluation" style="whiteSpace=wrap;strokeWidth=2;verticalAlign=top;" vertex="1" parent="1">
          <mxGeometry x="399" y="20" width="539" height="116" as="geometry" />
        </mxCell>
        <mxCell id="Tx8FIVoKTxQ0BMYuGaSS-3" value="Performance Metrics&#xa;Track accuracy, relevance,&#xa;and user engagement" style="whiteSpace=wrap;strokeWidth=2;" vertex="1" parent="Tx8FIVoKTxQ0BMYuGaSS-2">
          <mxGeometry x="43" y="33" width="207" height="66" as="geometry" />
        </mxCell>
        <mxCell id="Tx8FIVoKTxQ0BMYuGaSS-4" value="A/B Testing&#xa;Compare different&#xa;recommendation strategies" style="whiteSpace=wrap;strokeWidth=2;" vertex="1" parent="Tx8FIVoKTxQ0BMYuGaSS-2">
          <mxGeometry x="300" y="33" width="212" height="66" as="geometry" />
        </mxCell>
        <mxCell id="Tx8FIVoKTxQ0BMYuGaSS-5" value="Cold Start Handling" style="whiteSpace=wrap;strokeWidth=2;verticalAlign=top;" vertex="1" parent="1">
          <mxGeometry x="514" y="352" width="545" height="116" as="geometry" />
        </mxCell>
        <mxCell id="Tx8FIVoKTxQ0BMYuGaSS-6" value="New User&#xa;Recommend popular items&#xa;or get initial preferences" style="whiteSpace=wrap;strokeWidth=2;" vertex="1" parent="Tx8FIVoKTxQ0BMYuGaSS-5">
          <mxGeometry x="43" y="33" width="206" height="66" as="geometry" />
        </mxCell>
        <mxCell id="Tx8FIVoKTxQ0BMYuGaSS-7" value="New Product&#xa;Use content-based approach&#xa;or promote strategically" style="whiteSpace=wrap;strokeWidth=2;" vertex="1" parent="Tx8FIVoKTxQ0BMYuGaSS-5">
          <mxGeometry x="299" y="33" width="219" height="66" as="geometry" />
        </mxCell>
        <mxCell id="Tx8FIVoKTxQ0BMYuGaSS-8" value="User Interaction" style="whiteSpace=wrap;strokeWidth=2;verticalAlign=top;" vertex="1" parent="1">
          <mxGeometry x="416" y="634" width="506" height="116" as="geometry" />
        </mxCell>
        <mxCell id="Tx8FIVoKTxQ0BMYuGaSS-9" value="User Interface&#xa;Display recommendations&#xa;to users" style="whiteSpace=wrap;strokeWidth=2;" vertex="1" parent="Tx8FIVoKTxQ0BMYuGaSS-8">
          <mxGeometry x="43" y="33" width="199" height="66" as="geometry" />
        </mxCell>
        <mxCell id="Tx8FIVoKTxQ0BMYuGaSS-10" value="API Endpoints&#xa;Serve recommendations&#xa;to applications" style="whiteSpace=wrap;strokeWidth=2;" vertex="1" parent="Tx8FIVoKTxQ0BMYuGaSS-8">
          <mxGeometry x="292" y="33" width="187" height="66" as="geometry" />
        </mxCell>
        <mxCell id="Tx8FIVoKTxQ0BMYuGaSS-11" value="Model Training" style="whiteSpace=wrap;strokeWidth=2;verticalAlign=top;" vertex="1" parent="1">
          <mxGeometry x="20" y="186" width="713" height="116" as="geometry" />
        </mxCell>
        <mxCell id="Tx8FIVoKTxQ0BMYuGaSS-12" value="Collaborative Filtering&#xa;Find similar users&#xa;or items" style="whiteSpace=wrap;strokeWidth=2;" vertex="1" parent="Tx8FIVoKTxQ0BMYuGaSS-11">
          <mxGeometry x="43" y="33" width="176" height="66" as="geometry" />
        </mxCell>
        <mxCell id="Tx8FIVoKTxQ0BMYuGaSS-13" value="Content-Based Filtering&#xa;Recommend based on&#xa;item attributes" style="whiteSpace=wrap;strokeWidth=2;" vertex="1" parent="Tx8FIVoKTxQ0BMYuGaSS-11">
          <mxGeometry x="269" y="33" width="185" height="66" as="geometry" />
        </mxCell>
        <mxCell id="Tx8FIVoKTxQ0BMYuGaSS-14" value="Popularity-Based Model&#xa;Recommend trending&#xa;or top-rated items" style="whiteSpace=wrap;strokeWidth=2;" vertex="1" parent="Tx8FIVoKTxQ0BMYuGaSS-11">
          <mxGeometry x="503" y="33" width="182" height="66" as="geometry" />
        </mxCell>
        <mxCell id="Tx8FIVoKTxQ0BMYuGaSS-15" value="Data Sources" style="whiteSpace=wrap;strokeWidth=2;verticalAlign=top;" vertex="1" parent="1">
          <mxGeometry x="814" y="800" width="628" height="157" as="geometry" />
        </mxCell>
        <mxCell id="Tx8FIVoKTxQ0BMYuGaSS-16" value="Store 1 CSV&#xa;Transaction history&#xa;and product data" style="shape=cylinder3;boundedLbl=1;backgroundOutline=1;size=10;strokeWidth=2;whiteSpace=wrap;" vertex="1" parent="Tx8FIVoKTxQ0BMYuGaSS-15">
          <mxGeometry x="43" y="33" width="153" height="107" as="geometry" />
        </mxCell>
        <mxCell id="Tx8FIVoKTxQ0BMYuGaSS-17" value="Store 2 CSV&#xa;Transaction history&#xa;and product data" style="shape=cylinder3;boundedLbl=1;backgroundOutline=1;size=10;strokeWidth=2;whiteSpace=wrap;" vertex="1" parent="Tx8FIVoKTxQ0BMYuGaSS-15">
          <mxGeometry x="246" y="33" width="153" height="107" as="geometry" />
        </mxCell>
        <mxCell id="Tx8FIVoKTxQ0BMYuGaSS-18" value="Store N CSV&#xa;Transaction history&#xa;and product data" style="shape=cylinder3;boundedLbl=1;backgroundOutline=1;size=10;strokeWidth=2;whiteSpace=wrap;" vertex="1" parent="Tx8FIVoKTxQ0BMYuGaSS-15">
          <mxGeometry x="448" y="33" width="153" height="107" as="geometry" />
        </mxCell>
        <mxCell id="Tx8FIVoKTxQ0BMYuGaSS-19" value="Start" style="rounded=1;arcSize=50;strokeWidth=2;fontSize=67;labelBorderColor=none;whiteSpace=wrap;" vertex="1" parent="1">
          <mxGeometry x="114" y="939" width="205" height="119" as="geometry" />
        </mxCell>
        <mxCell id="Tx8FIVoKTxQ0BMYuGaSS-20" value="Data Ingestion&#xa;Import and integrate&#xa;data from all sources" style="whiteSpace=wrap;strokeWidth=2;" vertex="1" parent="1">
          <mxGeometry x="703" y="1007" width="167" height="66" as="geometry" />
        </mxCell>
        <mxCell id="Tx8FIVoKTxQ0BMYuGaSS-21" value="Data Processing&#xa;Clean, transform, and&#xa;prepare raw data" style="whiteSpace=wrap;strokeWidth=2;" vertex="1" parent="1">
          <mxGeometry x="700" y="1123" width="173" height="66" as="geometry" />
        </mxCell>
        <mxCell id="Tx8FIVoKTxQ0BMYuGaSS-22" value="Feature Engineering&#xa;Extract relevant features&#xa;for model input" style="whiteSpace=wrap;strokeWidth=2;" vertex="1" parent="1">
          <mxGeometry x="1093" y="1239" width="196" height="66" as="geometry" />
        </mxCell>
        <mxCell id="Tx8FIVoKTxQ0BMYuGaSS-23" value="Hybrid Model&#xa;Combine outputs from&#xa;different models" style="whiteSpace=wrap;strokeWidth=2;" vertex="1" parent="1">
          <mxGeometry x="289" y="377" width="175" height="66" as="geometry" />
        </mxCell>
        <mxCell id="Tx8FIVoKTxQ0BMYuGaSS-24" value="Generate Recommendations&#xa;Create personalized&#xa;product suggestions" style="whiteSpace=wrap;strokeWidth=2;" vertex="1" parent="1">
          <mxGeometry x="560" y="518" width="217" height="66" as="geometry" />
        </mxCell>
        <mxCell id="Tx8FIVoKTxQ0BMYuGaSS-25" value="Feedback Collection&#xa;Gather user interactions&#xa;and explicit feedback" style="whiteSpace=wrap;strokeWidth=2;" vertex="1" parent="1">
          <mxGeometry x="574" y="846" width="190" height="66" as="geometry" />
        </mxCell>
        <mxCell id="Tx8FIVoKTxQ0BMYuGaSS-26" value="" style="curved=1;startArrow=none;endArrow=block;exitX=1;exitY=0.5;entryX=0;entryY=0.25;rounded=0;fontSize=12;startSize=8;endSize=8;exitDx=0;exitDy=0;" edge="1" parent="1" source="Tx8FIVoKTxQ0BMYuGaSS-19" target="Tx8FIVoKTxQ0BMYuGaSS-20">
          <mxGeometry relative="1" as="geometry">
            <Array as="points">
              <mxPoint x="494" y="982" />
            </Array>
          </mxGeometry>
        </mxCell>
        <mxCell id="Tx8FIVoKTxQ0BMYuGaSS-27" value="" style="curved=1;startArrow=none;endArrow=block;exitX=0.5;exitY=1;entryX=0.5;entryY=0;rounded=0;fontSize=12;startSize=8;endSize=8;" edge="1" parent="1" source="Tx8FIVoKTxQ0BMYuGaSS-20" target="Tx8FIVoKTxQ0BMYuGaSS-21">
          <mxGeometry relative="1" as="geometry">
            <Array as="points" />
          </mxGeometry>
        </mxCell>
        <mxCell id="Tx8FIVoKTxQ0BMYuGaSS-28" value="" style="curved=1;startArrow=none;endArrow=block;exitX=0.5;exitY=1;entryX=0;entryY=0.29;rounded=0;fontSize=12;startSize=8;endSize=8;" edge="1" parent="1" source="Tx8FIVoKTxQ0BMYuGaSS-21" target="Tx8FIVoKTxQ0BMYuGaSS-22">
          <mxGeometry relative="1" as="geometry">
            <Array as="points">
              <mxPoint x="787" y="1214" />
            </Array>
          </mxGeometry>
        </mxCell>
        <mxCell id="Tx8FIVoKTxQ0BMYuGaSS-29" value="" style="curved=1;startArrow=none;endArrow=block;exitX=0.5;exitY=1;entryX=0;entryY=0.17;rounded=0;fontSize=12;startSize=8;endSize=8;" edge="1" parent="1" source="Tx8FIVoKTxQ0BMYuGaSS-23" target="Tx8FIVoKTxQ0BMYuGaSS-24">
          <mxGeometry relative="1" as="geometry">
            <Array as="points">
              <mxPoint x="376" y="493" />
            </Array>
          </mxGeometry>
        </mxCell>
        <mxCell id="Tx8FIVoKTxQ0BMYuGaSS-30" value="" style="curved=1;startArrow=none;endArrow=block;exitX=0.5;exitY=0.99;entryX=0.1;entryY=0;rounded=0;fontSize=12;startSize=8;endSize=8;" edge="1" parent="1" source="Tx8FIVoKTxQ0BMYuGaSS-25" target="Tx8FIVoKTxQ0BMYuGaSS-20">
          <mxGeometry relative="1" as="geometry">
            <Array as="points">
              <mxPoint x="669" y="982" />
            </Array>
          </mxGeometry>
        </mxCell>
        <mxCell id="Tx8FIVoKTxQ0BMYuGaSS-31" value="" style="curved=1;startArrow=none;endArrow=block;exitX=0.5;exitY=1;entryX=1;entryY=0.29;rounded=0;fontSize=12;startSize=8;endSize=8;" edge="1" parent="1" source="Tx8FIVoKTxQ0BMYuGaSS-15" target="Tx8FIVoKTxQ0BMYuGaSS-20">
          <mxGeometry relative="1" as="geometry">
            <Array as="points">
              <mxPoint x="1128" y="982" />
            </Array>
          </mxGeometry>
        </mxCell>
        <mxCell id="Tx8FIVoKTxQ0BMYuGaSS-32" value="" style="curved=1;startArrow=none;endArrow=block;exitX=1;exitY=0.2;entryX=1;entryY=0.73;rounded=0;fontSize=12;startSize=8;endSize=8;" edge="1" parent="1" source="Tx8FIVoKTxQ0BMYuGaSS-22" target="Tx8FIVoKTxQ0BMYuGaSS-11">
          <mxGeometry relative="1" as="geometry">
            <Array as="points">
              <mxPoint x="1477" y="1214" />
              <mxPoint x="1477" y="327" />
            </Array>
          </mxGeometry>
        </mxCell>
        <mxCell id="Tx8FIVoKTxQ0BMYuGaSS-33" value="" style="curved=1;startArrow=none;endArrow=block;exitX=0.5;exitY=1;entryX=0.5;entryY=0;rounded=0;fontSize=12;startSize=8;endSize=8;" edge="1" parent="1" source="Tx8FIVoKTxQ0BMYuGaSS-11" target="Tx8FIVoKTxQ0BMYuGaSS-23">
          <mxGeometry relative="1" as="geometry">
            <Array as="points" />
          </mxGeometry>
        </mxCell>
        <mxCell id="Tx8FIVoKTxQ0BMYuGaSS-34" value="" style="curved=1;startArrow=none;endArrow=block;exitX=0.5;exitY=1;entryX=0.5;entryY=0;rounded=0;fontSize=12;startSize=8;endSize=8;" edge="1" parent="1" source="Tx8FIVoKTxQ0BMYuGaSS-24" target="Tx8FIVoKTxQ0BMYuGaSS-8">
          <mxGeometry relative="1" as="geometry">
            <Array as="points" />
          </mxGeometry>
        </mxCell>
        <mxCell id="Tx8FIVoKTxQ0BMYuGaSS-35" value="" style="curved=1;startArrow=none;endArrow=block;exitX=0.5;exitY=1;entryX=0.5;entryY=-0.01;rounded=0;fontSize=12;startSize=8;endSize=8;" edge="1" parent="1" source="Tx8FIVoKTxQ0BMYuGaSS-8" target="Tx8FIVoKTxQ0BMYuGaSS-25">
          <mxGeometry relative="1" as="geometry">
            <Array as="points" />
          </mxGeometry>
        </mxCell>
        <mxCell id="Tx8FIVoKTxQ0BMYuGaSS-36" value="" style="curved=1;startArrow=none;endArrow=block;exitX=0.5;exitY=1;entryX=0.81;entryY=0;rounded=0;fontSize=12;startSize=8;endSize=8;" edge="1" parent="1" source="Tx8FIVoKTxQ0BMYuGaSS-5" target="Tx8FIVoKTxQ0BMYuGaSS-24">
          <mxGeometry relative="1" as="geometry">
            <Array as="points">
              <mxPoint x="787" y="493" />
            </Array>
          </mxGeometry>
        </mxCell>
        <mxCell id="Tx8FIVoKTxQ0BMYuGaSS-37" value="" style="curved=1;startArrow=none;endArrow=block;exitX=1;exitY=0.33;entryX=1;entryY=0.85;rounded=0;fontSize=12;startSize=8;endSize=8;" edge="1" parent="1" source="Tx8FIVoKTxQ0BMYuGaSS-24" target="Tx8FIVoKTxQ0BMYuGaSS-2">
          <mxGeometry relative="1" as="geometry">
            <Array as="points">
              <mxPoint x="1217" y="493" />
              <mxPoint x="1217" y="161" />
            </Array>
          </mxGeometry>
        </mxCell>
        <mxCell id="Tx8FIVoKTxQ0BMYuGaSS-38" value="" style="curved=1;startArrow=none;endArrow=block;exitX=0.12;exitY=1;entryX=0.5;entryY=0;rounded=0;fontSize=12;startSize=8;endSize=8;" edge="1" parent="1" source="Tx8FIVoKTxQ0BMYuGaSS-2" target="Tx8FIVoKTxQ0BMYuGaSS-11">
          <mxGeometry relative="1" as="geometry">
            <Array as="points">
              <mxPoint x="376" y="161" />
            </Array>
          </mxGeometry>
        </mxCell>
      </root>
    </mxGraphModel>
  </diagram>
</mxfile>
